<svg width="33px" height="33px" viewBox="0 0 33 33" version="1.1" xmlns="http://www.w3.org/2000/svg" xmlns:xlink="http://www.w3.org/1999/xlink">
  <path d="M16.4257812,13.7311899 L3.43625327,0.741661895 C2.69216241,-0.00242896516 1.48575276,-0.00242896516 0.741661895,0.741661895 C-0.00242896516,1.48575276 -0.00242896516,2.69216241 0.741661895,3.43625327 L13.7311899,16.4257812 L0.741661895,29.4153092 C-0.00242896516,30.1594001 -0.00242896516,31.3658097 0.741661895,32.1099006 C1.48575276,32.8539915 2.69216241,32.8539915 3.43625327,32.1099006 L16.4257812,19.1203726 L29.4153092,32.1099006 C30.1594001,32.8539915 31.3658097,32.8539915 32.1099006,32.1099006 C32.8539915,31.3658097 32.8539915,30.1594001 32.1099006,29.4153092 L19.1203726,16.4257812 L32.1099006,3.43625327 C32.8539915,2.69216241 32.8539915,1.48575276 32.1099006,0.741661895 C31.3658097,-0.00242896516 30.1594001,-0.00242896516 29.4153092,0.741661895 L16.4257812,13.7311899 Z" fill="#7c7c7c"></path>
</svg>
