<svg xmlns="http://www.w3.org/2000/svg" width="19" height="19" viewBox="0 0 19 19">
  <path fill="#E3E3E3" d="M13.6667621,16.5587378 L18.5634139,21.4553896 C19.1455287,22.0375044 19.1455287,22.9812991 18.5634139,23.5634139 C17.9812991,24.1455287 17.0375044,24.1455287 16.4553896,23.5634139 L11.5587378,18.6667621 C10.3810125,19.4466745 8.96875971,19.9008548 7.4504274,19.9008548 C3.33566997,19.9008548 0,16.5651848 0,12.4504274 C0,8.33566997 3.33566997,5 7.4504274,5 C11.5651848,5 14.9008548,8.33566997 14.9008548,12.4504274 C14.9008548,13.9687597 14.4466745,15.3810125 13.6667621,16.5587378 Z M7.4504274,16.5895537 C9.73640376,16.5895537 11.5895537,14.7364038 11.5895537,12.4504274 C11.5895537,10.1644511 9.73640376,8.31130107 7.4504274,8.31130107 C5.16445105,8.31130107 3.31130107,10.1644511 3.31130107,12.4504274 C3.31130107,14.7364038 5.16445105,16.5895537 7.4504274,16.5895537 Z" transform="translate(0 -5)"/>
</svg>
